<svg xmlns="http://www.w3.org/2000/svg" viewBox="0 0 512 512" style="height: 512px; width: 512px;"><g class="" transform="translate(0,0)" style=""><path d="m169.5 38.97-2.406 9-4.313 16.093-34.936-9.344-3.375 12.53-26.75-7.156-4.845 18.03 26.78 7.19-2.874 10.655 34.94 9.343-12.25 45.718-34.94-9.343-3.31 12.282-26.75-7.157-4.845 18.062 26.75 7.156-2.906 10.907 34.936 9.344-12.53 46.69-34.907-9.345L78 240.75l-26.78-7.188-4.845 18.032 26.78 7.187-3.25 12.095 34.907 9.344-12 44.75-34.906-9.345-2.875 10.75-26.78-7.188-4.813 18.032 26.75 7.155-3.343 12.53 34.906 9.345-4.47 16.688-2.405 9.03 9.03 2.407 254.845 68.28 9.03 2.408 2.408-9.032 4.468-16.655 34.813 9.313 3.342-12.5 27.032 7.25 4.844-18.032-27.032-7.25 2.875-10.75-34.81-9.312 12-44.75 34.81 9.312 3.25-12.094 27.033 7.25 4.812-18.03-27.03-7.25 3-11.157-34.814-9.313 12.5-46.656 34.814 9.313L439 263.843l27.03 7.25 4.845-18.063-27.03-7.25 3.28-12.31-34.78-9.314 12.25-45.72 34.78 9.314 2.844-10.625 27.06 7.25 4.845-18.063-27.063-7.25 3.375-12.593-34.78-9.314 4.312-16.062 2.436-9.03-9.03-2.44-254.845-68.25-9.03-2.405zm13.188 22.874L419.53 125.28l-84.966 316.91L97.75 378.75l84.938-316.906zM375.28 132.78 305.5 393.22l-175.313-47-4.843 18.06 184.376 49.41 9 2.406 2.436-9.03 72.188-269.44-18.063-4.843z" fill="#8260fc" fill-opacity="1"></path></g><g class="" transform="translate(156,154)" style=""><g transform="translate(12.8, 12.8) scale(0.6, 0.6) rotate(15, 128, 128)"><circle cx="128" cy="128" r="128" fill="#ffffff" fill-opacity="0"></circle><circle stroke="#8260fc" stroke-opacity="1" fill="#ffffff" fill-opacity="0" stroke-width="18" cx="128" cy="128" r="101"></circle><path fill="#8260fc" fill-opacity="1" d="M89.725 93.62H56.354c6.003 14.567 19.228 28.56 33.371 31.882v12.375h21.982C107.158 149.336 99.13 157.776 89.76 166H80.2v12.016h106.73V166h-10.288c-10.785-8.218-18.788-16.646-23.131-28.123h23.894v-10.956c7.244-2.226 12.263-5.266 22.24-17.77-7.437-6.578-14.725-10.229-22.24-11.989V81.984h-87.68z"></path></g></g></svg>